<?xml version="1.0" standalone="no"?>
<!DOCTYPE svg PUBLIC "-//W3C//DTD SVG 20010904//EN"
 "http://www.w3.org/TR/2001/REC-SVG-20010904/DTD/svg10.dtd">
<svg version="1.0" xmlns="http://www.w3.org/2000/svg"
 width="736.000000pt" height="736.000000pt" viewBox="0 0 736.000000 736.000000"
 preserveAspectRatio="xMidYMid meet">
<metadata>
Created by potrace 1.14, written by Peter Selinger 2001-2017
</metadata>
<g transform="translate(0.000000,736.000000) scale(0.100000,-0.100000)"
fill="#000000" stroke="none">
<path d="M468 6968 c2 -216 7 -485 11 -598 4 -122 3 -208 -2 -211 -5 -4 -1
-23 8 -44 16 -31 16 -44 6 -87 -6 -27 -8 -55 -4 -61 4 -7 10 -43 13 -82 3 -43
9 -70 17 -70 21 0 26 -14 24 -72 0 -32 4 -65 9 -73 6 -10 10 -11 10 -2 0 27
18 9 29 -30 7 -24 17 -48 23 -55 5 -6 9 -30 10 -52 0 -22 7 -46 14 -52 20 -16
59 -3 72 23 8 18 11 19 11 6 1 -10 8 -18 16 -18 8 0 24 -18 35 -40 17 -34 19
-47 10 -78 -5 -20 -11 -50 -13 -67 -3 -19 -5 -12 -6 18 -1 35 -6 49 -18 54 -9
4 -19 1 -21 -5 -2 -7 -10 -12 -18 -12 -10 0 -14 -12 -14 -40 0 -22 -5 -40 -11
-40 -7 0 -8 -14 -4 -40 6 -37 4 -42 -34 -78 -44 -42 -52 -73 -23 -94 27 -20
59 -124 45 -146 -6 -9 -19 -16 -29 -14 -59 10 -75 16 -86 29 -9 12 -9 16 3 24
10 6 7 9 -12 9 -23 0 -27 -5 -34 -42 -4 -24 -7 -47 -6 -51 1 -5 -4 -24 -11
-43 -9 -26 -9 -47 1 -99 12 -59 12 -68 -3 -84 -15 -17 -17 -75 -21 -587 -4
-505 -14 -1307 -31 -2418 -3 -198 -8 -364 -11 -369 -3 -5 -5 -38 -4 -73 1 -34
-3 -65 -9 -69 -5 -3 -10 -1 -10 6 0 9 -4 9 -15 -1 -8 -6 -18 -9 -24 -6 -11 7
-24 -22 -15 -35 3 -5 11 -9 18 -9 20 0 67 -40 61 -51 -8 -12 -130 -12 -192 0
-26 5 -90 12 -140 15 l-93 6 0 -280 c0 -154 2 -280 4 -280 2 0 35 18 74 39
105 60 178 86 334 121 405 90 707 182 970 297 l107 46 33 -28 c69 -57 176
-163 259 -255 117 -130 319 -394 319 -417 0 -19 -383 97 -543 164 -73 30 -113
25 -44 -5 107 -48 431 -153 623 -202 85 -21 169 -113 204 -222 l12 -38 1290 0
c1229 0 1290 1 1276 18 -90 107 -123 149 -185 236 -50 70 -84 131 -110 196
-40 105 -62 130 -180 215 l-70 49 -2 111 c-3 147 -21 164 -21 20 l-1 -110 -37
42 c-20 24 -75 109 -122 190 -47 81 -104 172 -127 202 -30 40 -37 57 -27 59 8
2 62 -1 121 -7 86 -9 109 -8 122 2 25 21 167 101 287 160 146 72 233 104 367
132 20 4 27 1 27 -9 0 -20 -30 -96 -76 -189 -20 -43 -34 -80 -29 -85 4 -4 10
-1 12 6 3 7 16 26 29 42 14 16 50 77 80 137 31 59 58 110 59 111 2 2 33 1 69
-3 54 -6 66 -11 66 -25 0 -33 -60 -250 -96 -348 -20 -53 -65 -157 -99 -229
-35 -73 -60 -133 -55 -133 19 0 157 227 237 390 48 96 88 177 90 179 1 2 26
-3 54 -12 69 -23 73 -22 65 14 -10 53 -37 99 -57 99 -20 0 -25 25 -10 48 13
21 89 -5 108 -37 91 -151 192 -256 328 -343 72 -46 216 -107 295 -126 115 -27
142 -32 150 -27 5 3 -1 28 -13 56 -22 50 -22 50 -109 79 -109 37 -183 74 -273
138 -81 57 -193 164 -178 169 17 6 184 -64 312 -130 141 -72 216 -125 307
-215 68 -67 70 -69 143 -81 115 -18 379 -78 451 -102 73 -24 135 -54 145 -69
15 -24 -50 -603 -84 -744 l-18 -76 248 0 249 0 0 880 c0 672 -3 885 -12 900
-10 15 -10 34 0 90 9 54 12 704 12 2780 l0 2710 -1055 0 c-602 0 -1055 -4
-1055 -9 0 -5 11 -37 24 -72 30 -82 66 -247 68 -313 0 -28 -5 -77 -12 -110
-15 -71 -67 -134 -145 -174 -48 -25 -57 -26 -250 -29 l-200 -4 -59 33 c-49 27
-61 40 -72 73 -7 22 -29 55 -49 73 -19 18 -35 34 -35 37 0 3 33 5 74 5 157 0
301 34 393 93 36 23 43 33 54 82 13 58 25 67 52 37 28 -31 40 -77 26 -104 -41
-80 -168 -174 -286 -213 -29 -9 -53 -21 -53 -27 0 -34 203 60 281 130 57 51
89 106 89 153 0 24 -11 42 -45 77 l-45 45 0 108 c0 81 -3 109 -12 109 -10 0
-13 -34 -15 -133 -3 -211 -25 -249 -173 -297 -115 -36 -396 -54 -419 -26 -9
11 -6 15 16 20 55 13 209 96 249 133 78 73 125 158 139 256 10 65 -10 62 -24
-4 -34 -156 -133 -266 -304 -334 -88 -35 -106 -32 -73 15 14 19 30 41 36 48
34 39 120 266 120 315 0 4 -49 7 -110 7 l-109 0 -6 -37 c-12 -75 -38 -170 -67
-251 -27 -75 -33 -83 -52 -78 -129 37 -181 56 -180 68 1 7 15 69 33 137 41
164 42 161 -15 161 l-46 0 6 -45 c9 -58 9 -162 0 -221 l-7 -46 -36 7 c-20 4
-99 9 -176 10 l-140 3 -12 78 c-7 42 -21 108 -33 146 l-21 68 -92 0 c-88 -1
-91 -1 -72 -18 74 -63 205 -258 190 -282 -2 -4 -38 -13 -80 -19 l-75 -13 -49
44 c-115 103 -291 200 -435 237 -106 28 -219 36 -276 21 -54 -15 -56 -14 -52
10 2 11 -2 20 -7 20 -6 0 -11 -13 -11 -28 0 -20 -13 -41 -45 -72 l-45 -44
-117 -7 c-198 -11 -396 -89 -632 -246 -18 -13 -37 -20 -42 -17 -5 3 -9 97 -9
210 l0 204 -658 0 -657 0 3 -392z m3122 378 c0 -2 -8 -10 -17 -17 -16 -13 -17
-12 -4 4 13 16 21 21 21 13z m-610 -52 c90 -21 236 -85 333 -148 84 -54 157
-112 157 -126 0 -4 -18 -15 -40 -25 l-40 -18 -92 61 c-125 82 -198 118 -299
144 -154 40 -294 25 -334 -36 -25 -38 -12 -70 46 -113 60 -45 49 -54 -25 -20
-66 31 -91 65 -91 127 0 76 69 145 170 171 37 9 129 2 215 -17z m1117 4 c-3
-8 -6 -5 -6 6 -1 11 2 17 5 13 3 -3 4 -12 1 -19z m-1347 -142 c0 -2 -7 -9 -15
-16 -13 -11 -14 -10 -9 4 5 14 24 23 24 12z m35 -16 c3 -6 -1 -7 -9 -4 -18 7
-21 14 -7 14 6 0 13 -4 16 -10z m-217 -48 c2 -12 21 -40 43 -61 l40 -38 -78
-13 c-221 -35 -581 -210 -743 -361 -46 -42 -24 -51 33 -13 208 140 371 208
682 283 99 24 280 50 306 43 4 -1 48 -6 98 -13 50 -6 91 -14 91 -18 0 -3 -9
-17 -19 -30 -14 -18 -35 -26 -101 -37 -71 -11 -88 -18 -116 -45 -19 -18 -39
-47 -45 -66 -9 -27 -18 -34 -52 -43 -94 -22 -183 -57 -221 -85 -22 -16 -87
-62 -143 -101 -222 -152 -372 -287 -495 -446 -33 -43 -62 -78 -64 -78 -2 0 -3
204 -4 453 0 515 -11 459 95 516 61 33 308 120 400 141 62 14 243 39 270 37
13 -1 21 -10 23 -25z m549 12 c-3 -3 -12 -4 -19 -1 -8 3 -5 6 6 6 11 1 17 -2
13 -5z m-104 -11 c-7 -2 -19 -2 -25 0 -7 3 -2 5 12 5 14 0 19 -2 13 -5z m962
-63 c186 -24 282 -55 357 -113 22 -17 43 -27 52 -24 15 6 107 -42 152 -80 12
-10 29 -33 39 -52 l17 -34 -29 6 c-94 18 -201 44 -220 55 -12 7 -51 12 -87 12
-61 0 -66 2 -90 33 -25 32 -26 32 -108 31 -256 -4 -395 -11 -415 -22 -13 -7
-68 -12 -145 -12 -68 0 -139 -4 -157 -10 -28 -8 -38 -6 -54 8 -16 14 -39 17
-133 17 -63 0 -114 3 -114 7 0 13 32 38 58 45 15 4 96 7 179 8 111 0 153 3
153 12 0 6 -15 13 -32 15 -32 4 -31 5 34 37 65 32 155 52 303 70 39 5 75 9 80
10 6 0 78 -8 160 -19z m-932 -57 c-7 -2 -21 -2 -30 0 -10 3 -4 5 12 5 17 0 24
-2 18 -5z m1080 -140 c54 -15 278 -385 367 -608 18 -44 38 -85 45 -90 12 -10
35 -77 40 -115 1 -8 7 -33 13 -55 6 -22 13 -110 17 -195 3 -85 9 -167 11 -182
3 -17 1 -28 -5 -28 -6 0 -11 5 -11 11 0 28 -212 479 -226 479 -10 0 -69 -33
-89 -49 -28 -24 -246 -154 -250 -150 -2 2 3 29 11 59 58 224 79 670 38 814
-11 38 -26 72 -33 74 -11 4 -12 -1 -7 -19 4 -13 14 -57 23 -98 15 -70 14 -81
-6 -200 -11 -69 -35 -175 -52 -236 -16 -60 -37 -135 -45 -165 -22 -79 -48
-154 -88 -247 -20 -46 -33 -83 -29 -83 3 0 -4 -9 -17 -20 -27 -23 -144 -90
-158 -90 -5 0 -26 42 -47 93 -52 127 -230 492 -244 501 -16 10 -14 23 8 43 10
10 22 34 26 53 17 80 93 244 197 422 48 80 54 83 223 81 66 -1 136 2 155 7 33
8 92 5 133 -7z m-867 -21 c32 -20 22 -168 -17 -248 -25 -52 -49 -62 -162 -66
l-89 -3 6 37 c4 21 2 38 -3 38 -11 0 -23 -38 -40 -122 -19 -88 -44 -117 -125
-145 -107 -35 -108 -35 -100 41 4 37 3 66 -3 69 -6 4 -19 -50 -32 -131 -13
-88 -28 -146 -39 -162 -24 -33 -111 -92 -131 -88 -13 3 -121 179 -121 199 0
21 111 118 163 142 51 25 57 31 57 58 0 17 4 28 9 25 5 -4 32 18 60 47 31 33
82 70 133 97 46 24 117 67 159 96 65 44 159 84 197 84 6 0 14 9 17 20 6 20 39
27 61 12z m341 -10 c8 -5 1 -25 -24 -67 -32 -55 -63 -97 -165 -223 -21 -26
-38 -52 -38 -58 0 -7 -4 -14 -8 -16 -19 -7 -162 -254 -162 -279 0 -5 6 -7 13
-3 6 4 9 4 5 0 -3 -4 -10 -7 -14 -6 -3 1 -15 -17 -25 -39 -9 -22 -35 -52 -56
-68 -40 -30 -64 -49 -122 -99 -72 -62 -303 -245 -306 -242 -10 9 -165 292
-165 299 0 5 7 9 16 9 18 0 96 60 126 95 9 11 22 48 28 83 9 46 16 62 29 62 9
0 51 12 93 26 94 31 131 67 148 146 l12 53 81 -4 c91 -4 144 9 174 41 29 32
52 107 60 194 3 41 11 78 17 81 31 19 257 32 283 15z m738 -43 c11 -6 31 -25
45 -44 14 -18 40 -44 59 -57 105 -72 316 -262 369 -332 94 -125 177 -320 238
-559 32 -127 35 -150 23 -162 -14 -13 -134 -65 -151 -65 -4 0 -8 22 -8 49 0
121 -62 339 -150 526 -64 137 -99 197 -110 190 -5 -3 22 -67 60 -143 103 -206
159 -390 176 -570 7 -71 7 -72 -20 -82 -41 -15 -43 -14 -50 43 -10 82 -54 245
-85 311 -15 34 -33 72 -39 86 -6 14 -25 48 -41 75 -17 28 -38 64 -47 80 -9 17
-32 51 -50 77 -19 26 -66 112 -105 190 -78 156 -133 254 -191 337 -21 30 -38
58 -38 63 0 11 87 1 115 -13z m154 -34 c78 -20 216 -81 308 -137 79 -48 183
-118 183 -123 0 -3 -62 27 -137 65 -184 92 -233 113 -233 97 0 -7 43 -32 95
-56 52 -24 100 -53 108 -65 8 -11 41 -39 73 -61 166 -113 379 -313 490 -460
187 -248 293 -517 324 -824 5 -57 10 -107 10 -112 0 -5 5 -9 11 -9 16 0 4 162
-20 289 -47 237 -154 477 -300 666 -100 130 -321 342 -461 443 -65 46 -42 40
48 -15 306 -184 506 -367 665 -608 120 -183 190 -368 227 -600 l23 -139 -24
-19 c-21 -17 -192 -107 -203 -107 -3 0 -10 26 -16 58 -28 137 -73 299 -127
462 -52 153 -62 176 -83 182 -14 4 -56 17 -95 28 l-70 21 -78 -36 c-44 -20
-84 -34 -91 -32 -7 3 -25 56 -41 119 -56 228 -137 429 -227 561 -21 31 -71 89
-111 128 -64 63 -109 100 -290 244 -28 22 -52 45 -54 52 -4 12 -3 12 96 -12z
m539 -137 c-14 -18 -36 -41 -50 -51 l-25 -19 -79 51 -78 51 128 0 129 0 -25
-32z m-2471 -80 c-3 -8 -6 -5 -6 6 -1 11 2 17 5 13 3 -3 4 -12 1 -19z m-242
-190 c5 -4 0 -6 -12 -6 -13 1 -19 7 -16 15 3 8 8 10 12 6 3 -4 10 -11 16 -15z
m-378 -240 c-3 -8 -6 -5 -6 6 -1 11 2 17 5 13 3 -3 4 -12 1 -19z m-342 -8 c3
-5 2 -10 -4 -10 -5 0 -13 5 -16 10 -3 6 -2 10 4 10 5 0 13 -4 16 -10z m-28
-16 c-3 -3 -12 -4 -19 -1 -8 3 -5 6 6 6 11 1 17 -2 13 -5z m-110 -86 c-3 -7
-5 -2 -5 12 0 14 2 19 5 13 2 -7 2 -19 0 -25z m-2 -128 c-3 -39 -1 -49 5 -32
5 12 7 30 3 40 -4 13 -3 14 6 6 9 -9 9 -23 -3 -65 -8 -30 -15 -48 -15 -41 -1
14 -31 17 -31 2 0 -6 7 -13 15 -16 9 -4 15 -19 15 -36 0 -16 -4 -27 -9 -24 -4
3 -8 -7 -8 -22 -1 -15 -3 -38 -6 -52 -2 -14 -10 -54 -16 -90 -14 -75 -40 -207
-48 -232 -5 -21 -57 -25 -70 -5 -5 8 -10 2 -14 -18 l-6 -30 -13 28 c-7 15 -18
27 -25 27 -6 0 -15 19 -21 43 -8 36 -13 42 -38 45 -51 6 -74 -5 -81 -40 -17
-87 -31 -95 -106 -68 -30 11 -48 19 -41 20 7 0 12 13 12 31 0 25 -3 29 -19 24
-22 -7 -31 17 -31 80 0 50 14 75 31 58 10 -10 15 -9 25 5 21 27 17 44 -8 37
-13 -4 -3 7 22 24 44 30 80 40 80 22 0 -6 14 -18 31 -28 28 -16 30 -22 26 -55
l-5 -38 49 0 49 0 0 40 c0 34 -3 40 -21 40 -20 0 -21 1 -5 24 9 14 13 31 10
39 -3 10 1 14 12 14 11 -2 21 12 32 43 8 25 19 56 25 70 9 24 10 24 17 5 6
-15 13 -2 30 58 22 75 39 92 50 51 4 -14 14 -19 43 -19 l37 0 0 60 c0 42 3 56
10 45 5 -8 8 -40 5 -70z m2525 -10 c0 -5 -10 -10 -22 -9 -22 0 -22 1 -3 9 11
5 21 9 23 9 1 1 2 -3 2 -9z m659 -230 c0 -9 -4 -8 -9 5 -5 11 -9 27 -9 35 0 9
4 8 9 -5 5 -11 9 -27 9 -35z m-3545 -15 c-4 -8 -12 -15 -20 -15 -8 0 -14 7
-14 15 0 8 9 15 20 15 13 0 18 -5 14 -15z m61 -55 c3 -5 -1 -10 -10 -10 -9 0
-13 5 -10 10 3 6 8 10 10 10 2 0 7 -4 10 -10z m-278 -152 c-2 -13 -4 -3 -4 22
0 25 2 35 4 23 2 -13 2 -33 0 -45z m-147 -108 c-19 -13 -30 -13 -30 0 0 6 10
10 23 10 18 0 19 -2 7 -10z m557 -102 c-3 -7 -5 -2 -5 12 0 14 2 19 5 13 2 -7
2 -19 0 -25z m0 -80 c-3 -7 -5 -2 -5 12 0 14 2 19 5 13 2 -7 2 -19 0 -25z m0
-90 c-3 -8 -6 -5 -6 6 -1 11 2 17 5 13 3 -3 4 -12 1 -19z m1711 -1178 c304
-19 647 -71 822 -124 25 -8 106 -31 180 -51 338 -93 671 -227 965 -388 64 -35
186 -109 203 -123 7 -5 -50 -157 -120 -322 -203 -481 -294 -596 -754 -957 -21
-16 -97 -72 -169 -123 -130 -94 -130 -94 -180 -89 -68 7 -205 62 -420 167
-327 160 -554 328 -918 679 -59 57 -110 101 -114 98 -3 -4 0 -26 8 -49 13 -41
15 -47 18 -67 0 -5 9 -8 19 -7 12 1 17 -7 18 -24 1 -14 4 -36 9 -49 6 -21 5
-22 -8 -10 -8 8 -13 17 -11 21 2 3 1 8 -4 10 -14 6 -54 77 -48 87 4 5 3 12 -2
15 -5 3 -9 29 -11 58 -1 29 -4 54 -5 55 -10 10 -34 -13 -51 -48 -28 -60 -31
-29 -3 33 14 29 23 67 22 83 -1 17 -25 76 -53 132 l-51 101 40 144 c65 238
127 421 233 693 23 59 24 60 68 66 24 3 67 4 94 2 28 -2 128 -8 223 -13z
m-584 -13 c-3 -10 -34 -82 -68 -160 -35 -78 -82 -193 -106 -254 l-43 -113 -29
45 c-17 25 -33 45 -38 45 -4 0 -22 14 -39 32 -38 39 -39 65 -6 146 31 76 31
99 3 184 -12 37 -20 70 -17 72 4 4 287 22 331 22 13 0 16 -6 12 -19z m-397
-13 c12 -3 24 -17 28 -32 3 -15 8 -34 10 -42 4 -12 -4 -14 -44 -12 -43 3 -51
1 -70 -23 -17 -23 -21 -41 -21 -106 0 -78 10 -118 39 -152 13 -16 13 -19 1
-27 -25 -16 -39 -11 -84 30 -71 66 -94 48 -26 -20 l41 -41 90 3 91 3 54 -58
c30 -32 58 -56 63 -53 5 4 4 -10 -2 -29 -11 -37 -58 -71 -130 -95 -30 -9 -44
-9 -68 0 -30 13 -56 46 -50 65 1 5 0 7 -4 3 -8 -8 -38 26 -81 91 -16 24 -37
56 -47 70 -63 93 -87 202 -68 307 6 38 16 76 21 84 6 10 42 19 107 26 126 15
124 15 150 8z m50 -128 c13 -13 6 -65 -16 -120 -15 -36 -22 -69 -19 -96 4 -45
4 -44 -23 -30 -51 28 -83 157 -55 224 16 38 17 39 62 33 25 -2 48 -7 51 -11z
m180 -378 c-3 -8 -6 -5 -6 6 -1 11 2 17 5 13 3 -3 4 -12 1 -19z m-12 -45 c-4
-16 -8 -34 -8 -40 0 -17 -17 -17 -17 0 0 14 23 67 29 67 2 0 0 -12 -4 -27z
m3035 -179 c69 -53 72 -58 89 -169 7 -44 16 -98 21 -120 5 -22 14 -126 20
-231 29 -527 -50 -928 -273 -1378 -32 -65 -60 -116 -63 -114 -2 3 8 33 21 69
68 171 129 427 150 629 19 179 19 618 0 815 -8 83 -15 151 -15 153 0 1 -7 2
-16 2 -12 0 -15 -6 -11 -22 3 -13 11 -79 17 -148 17 -184 -5 -374 -76 -652
-26 -106 -84 -272 -91 -265 -2 3 3 31 12 63 39 141 66 270 87 419 20 142 22
203 23 540 1 299 4 388 15 418 8 20 17 37 21 37 4 0 35 -21 69 -46z m-3317
-104 c64 -66 117 -126 117 -134 0 -8 -5 -37 -11 -64 l-12 -49 -51 13 c-28 8
-86 17 -128 20 l-77 7 -3 154 c-2 84 -1 158 0 163 2 6 14 10 26 10 16 0 59
-37 139 -120z m404 -146 c-9 -9 -28 6 -21 18 4 6 10 6 17 -1 6 -6 8 -13 4 -17z
m-214 -101 c-5 -30 -6 -31 -32 -20 -14 6 -27 12 -29 13 -2 1 2 22 9 47 l11 46
23 -27 c16 -20 21 -36 18 -59z m-221 -53 c57 -11 104 -20 106 -20 1 0 2 -11 2
-25 l0 -25 -114 0 c-122 0 -126 2 -126 54 0 42 -2 42 132 16z m189 -50 c5 0 9
-4 9 -10 0 -5 -10 -8 -22 -6 -13 3 -27 5 -31 5 -5 1 -5 6 -2 12 4 6 14 8 22 5
8 -3 19 -6 24 -6z m199 -74 c0 -3 -9 -6 -20 -6 -19 0 -27 20 -14 33 6 6 34
-16 34 -27z m-294 -23 c-8 -26 -34 -234 -42 -335 -4 -48 -9 -86 -13 -84 -3 2
-4 -32 -2 -76 2 -50 -1 -84 -8 -91 -14 -14 -15 -50 -1 -42 6 4 9 -10 8 -35 -1
-22 -5 -43 -9 -45 -4 -3 -5 -22 -2 -44 6 -41 -11 -105 -32 -131 -7 -8 -16 -26
-18 -40 -3 -14 -4 -7 -1 15 2 22 6 64 9 94 6 73 25 92 21 20 -3 -41 -2 -48 5
-30 14 37 5 99 -18 121 -23 21 -21 70 3 70 22 0 16 28 -13 66 -31 38 -50 43
-69 17 -7 -10 -16 -14 -21 -10 -14 15 -20 534 -6 548 5 5 44 12 88 17 125 15
127 14 121 -5z m104 10 c0 -5 -5 -107 -10 -227 -10 -201 -12 -221 -30 -233
-11 -8 -20 -23 -20 -33 0 -22 -16 -36 -22 -19 -2 7 -10 4 -18 -7 -12 -14 -12
-16 -1 -9 11 6 13 3 8 -16 -6 -23 -6 -24 10 -4 14 18 15 18 9 2 -3 -11 -9 -30
-12 -43 -3 -13 -11 -24 -18 -24 -21 0 -18 116 9 415 19 210 18 205 60 205 19
0 35 -3 35 -7z m348 -76 c33 -19 58 -74 65 -140 3 -32 13 -71 23 -85 l17 -27
-21 18 c-22 20 -42 16 -42 -9 0 -8 -8 -17 -17 -21 -10 -3 -27 -13 -37 -22 -14
-12 -12 -5 7 24 14 22 33 58 41 81 19 55 2 95 -53 124 -45 23 -45 23 -31 51
12 22 17 23 48 6z m2458 -9 c-3 -13 -5 -25 -5 -28 -1 -3 -1 -197 -2 -433 -1
-271 -5 -430 -12 -434 -5 -3 -17 -7 -26 -7 -9 -1 -36 -8 -61 -15 -80 -22 -86
-23 -71 -13 10 7 6 10 -14 10 -15 0 -22 -4 -16 -8 20 -11 -10 -28 -46 -25 -25
1 -30 -1 -22 -11 7 -9 0 -15 -28 -24 -21 -7 -44 -17 -51 -23 -31 -25 -145 -75
-158 -70 -9 3 -14 0 -12 -8 2 -8 -8 -13 -29 -12 -18 0 -30 -4 -27 -8 3 -5 -2
-9 -10 -9 -9 0 -15 -3 -15 -7 3 -20 -4 -30 -33 -48 -31 -18 -98 -22 -122 -7
-6 3 -27 5 -46 5 -31 -2 -32 -1 -10 7 22 7 21 8 -12 7 -30 -2 -34 -4 -25 -16
10 -12 9 -13 -2 -6 -8 4 -29 9 -47 10 -22 1 -45 13 -72 37 -21 19 -47 40 -57
45 -16 9 -17 18 -7 89 8 67 7 84 -7 113 -16 33 -85 81 -117 81 -13 0 -13 2 -1
14 12 12 23 11 83 -9 85 -30 139 -31 182 -5 17 11 84 58 147 105 63 47 119 85
123 85 5 0 19 11 32 25 19 20 26 22 38 12 8 -6 29 -12 45 -13 24 -2 27 0 14 8
-10 5 -21 7 -26 4 -5 -3 -14 1 -20 8 -8 10 -9 16 -1 21 5 3 10 2 10 -4 0 -6 7
-8 16 -4 13 5 13 7 2 14 -10 6 -9 11 7 23 13 9 22 11 26 4 4 -5 9 1 12 14 7
26 70 73 86 64 5 -4 13 4 16 16 7 19 48 68 58 68 8 0 107 101 107 109 0 4 12
18 26 32 33 31 114 141 144 197 26 46 42 55 36 20z m-2215 -101 c0 -7 3 -30 5
-52 5 -40 5 -40 -26 22 -17 34 -40 65 -51 68 -13 5 -19 15 -19 37 l0 31 45
-47 c25 -26 45 -53 46 -59z m-252 24 c12 -8 11 -13 -9 -29 -26 -21 -40 -20
-40 2 0 12 19 36 30 36 3 0 12 -4 19 -9z m141 -12 c0 -6 -4 -7 -10 -4 -5 3
-10 11 -10 16 0 6 5 7 10 4 6 -3 10 -11 10 -16z m20 -152 c0 -5 -4 -5 -10 -2
-5 3 -10 14 -10 23 0 15 2 15 10 2 5 -8 10 -19 10 -23z m-215 -102 c-14 -78
-19 -53 -8 45 4 43 9 57 13 44 4 -10 2 -51 -5 -89z m300 85 c-3 -5 -12 -10
-18 -10 -7 0 -6 4 3 10 19 12 23 12 15 0z m100 -92 c14 -3 25 -1 25 3 0 5 5 9
10 9 6 0 10 -16 10 -35 0 -28 -4 -35 -19 -35 -10 0 -38 -7 -61 -15 -41 -15
-44 -14 -63 5 -10 12 -31 26 -45 32 l-27 10 34 12 c42 15 61 41 61 85 l1 36
25 -51 c18 -38 31 -53 49 -56z m-205 43 c-1 -32 -50 -72 -50 -40 0 5 5 7 12 3
7 -5 8 -3 3 6 -4 7 -2 16 6 21 10 6 10 9 2 9 -7 0 -10 6 -7 14 7 19 34 9 34
-13z m348 13 c10 -10 17 -38 19 -76 4 -58 3 -59 -19 -53 -13 4 -24 9 -26 10
-1 1 -5 32 -9 69 -6 70 2 82 35 50z m-628 -9 c0 -8 -4 -15 -10 -15 -5 0 -10 7
-10 15 0 8 5 15 10 15 6 0 10 -7 10 -15z m157 -21 c-3 -20 -1 -24 12 -19 12 5
13 3 4 -5 -18 -20 -42 1 -32 28 11 30 22 28 16 -4z m203 9 c-1 -20 -19 -35
-36 -29 -16 6 -16 7 2 21 21 16 34 19 34 8z m-360 -33 c0 -5 -15 -10 -32 -9
-31 1 -32 1 -8 9 35 11 40 11 40 0z m-40 -50 c0 13 1 13 10 0 15 -24 12 -32
-10 -20 -11 6 -20 16 -20 23 0 7 4 6 10 -3 9 -13 10 -13 10 0z m200 -10 c6
-11 7 -20 3 -20 -4 0 -2 -4 5 -9 8 -5 12 -16 10 -26 -2 -13 -10 -7 -29 23 -25
38 -27 52 -8 52 5 0 13 -9 19 -20z m86 1 c-3 -5 8 -14 24 -21 17 -7 30 -18 30
-24 0 -17 -21 -36 -41 -36 -21 0 -44 -54 -43 -102 1 -40 -18 -53 -30 -21 -7
16 10 81 25 97 4 5 5 23 2 39 -6 30 -6 30 17 14 12 -8 29 -13 36 -10 21 8 17
21 -8 25 -24 3 -40 48 -18 48 6 0 9 -4 6 -9z m-339 -38 c-3 -10 -5 -4 -5 12 0
17 2 24 5 18 2 -7 2 -21 0 -30z m879 15 c-7 -37 -17 -58 -28 -58 -7 0 -7 4 0
13 11 13 12 17 12 47 0 11 5 20 10 20 6 0 8 -10 6 -22z m-211 -3 c-5 -2 -32
-6 -59 -10 -46 -6 -47 -7 -27 -21 11 -8 21 -24 21 -35 0 -10 6 -19 13 -20 6 0
1 -5 -11 -12 -20 -9 -26 -8 -34 6 -5 10 -14 14 -20 11 -6 -4 -14 0 -19 7 -4 7
-11 10 -15 6 -4 -4 2 -16 14 -27 l21 -20 -36 -33 c-20 -19 -43 -52 -52 -74
l-16 -41 -37 15 c-42 17 -44 21 -23 49 15 19 15 19 8 -1 -3 -11 -3 -17 2 -13
4 4 14 3 22 -3 20 -17 44 7 41 42 -1 15 -6 25 -10 23 -4 -3 -8 3 -9 13 0 10
-3 13 -6 6 -2 -7 -9 -13 -15 -13 -20 0 55 81 88 95 33 13 50 33 19 21 -8 -3
-15 -1 -15 4 0 6 3 10 8 11 22 2 56 10 61 14 2 3 25 5 50 4 25 0 42 -2 36 -4z
m-575 -30 c14 -36 9 -77 -8 -70 -8 3 -15 5 -18 5 -2 0 -1 7 3 16 3 9 0 20 -8
26 -11 8 -10 9 4 4 18 -6 24 9 7 19 -13 8 -13 25 0 25 6 0 15 -11 20 -25z m27
3 c-3 -8 -6 -5 -6 6 -1 11 2 17 5 13 3 -3 4 -12 1 -19z m374 -16 c-8 -3 -35
-23 -60 -46 -32 -29 -41 -34 -30 -16 18 28 91 82 99 73 3 -3 -1 -8 -9 -11z
m264 -4 c21 -9 22 -12 9 -25 -13 -14 -13 -18 1 -39 18 -28 17 -29 -22 -9 -16
8 -46 16 -66 17 -43 3 -46 12 -14 39 12 10 16 18 10 19 -7 0 -13 5 -13 11 0
13 56 5 95 -13z m200 2 c0 -8 5 -22 10 -30 7 -13 6 -13 -7 -2 -9 8 -14 19 -12
27 3 7 -3 16 -13 19 -15 4 -15 5 2 3 11 -1 20 -9 20 -17z m-717 -12 c18 -38
23 -66 13 -72 -5 -3 -7 -15 -4 -26 3 -11 0 -20 -6 -20 -10 0 -15 13 -12 32 2
18 -31 78 -51 92 -22 16 -22 16 13 16 27 0 38 -5 47 -22z m163 -5 c-6 -10 -24
-34 -40 -53 -24 -27 -31 -31 -31 -16 0 10 17 34 37 52 42 39 48 41 34 17z
m443 -97 c-4 -48 -9 -84 -12 -81 -7 6 -4 82 4 138 10 68 15 32 8 -57z m-659
74 c3 -5 -1 -10 -9 -10 -9 0 -16 5 -16 10 0 6 4 10 9 10 6 0 13 -4 16 -10z
m3333 -41 c-3 -33 -4 -33 -8 8 -3 23 -2 39 3 34 5 -5 7 -24 5 -42z m331 -11
c1 -5 -3 -8 -9 -8 -5 0 -10 12 -9 28 0 24 1 25 9 7 5 -11 9 -23 9 -27z m-4072
10 c-3 -8 -6 -5 -6 6 -1 11 2 17 5 13 3 -3 4 -12 1 -19z m363 18 c0 -3 -4 -8
-10 -11 -5 -3 -10 -1 -10 4 0 6 5 11 10 11 6 0 10 -2 10 -4z m70 -27 c0 -10
-4 -19 -9 -19 -5 0 -8 11 -8 25 0 13 3 22 8 19 5 -3 9 -14 9 -25z m3844 -6 c7
3 17 -8 24 -25 11 -29 10 -29 -7 -14 -23 21 -31 20 -31 -1 0 -13 -3 -14 -8 -6
-4 7 -6 30 -3 50 4 28 6 32 9 15 2 -14 9 -22 16 -19z m416 15 c0 -16 -3 -19
-11 -11 -6 6 -8 16 -5 22 11 17 16 13 16 -11z m-100 -4 c0 -8 -5 -12 -10 -9
-6 4 -8 11 -5 16 9 14 15 11 15 -7z m-3690 -25 c0 -23 -4 -30 -17 -27 -9 2
-16 6 -15 11 1 4 2 16 2 27 0 11 7 20 15 20 10 0 15 -10 15 -31z m230 -127
c-5 -35 -7 -69 -4 -75 5 -16 -13 -43 -23 -34 -10 11 -10 160 1 222 l9 50 13
-50 c10 -36 11 -68 4 -113z m2709 121 c0 -29 -2 -33 -8 -18 -7 18 -4 55 5 55
2 0 4 -17 3 -37z m86 27 c-3 -5 -10 -10 -16 -10 -5 0 -9 5 -9 10 0 6 7 10 16
10 8 0 12 -4 9 -10z m67 -41 c6 -4 7 -16 3 -29 -7 -22 -9 -20 -21 16 -16 44
-18 82 -3 44 6 -13 15 -27 21 -31z m134 18 c-3 -20 -16 -37 -29 -37 -8 0 -7 3
2 9 8 5 12 19 9 35 -4 20 -2 24 7 16 7 -6 12 -16 11 -23z m408 9 c-4 -17 0
-27 13 -35 15 -9 16 -10 2 -11 -20 0 -32 26 -24 51 9 28 16 23 9 -5z m103 -28
c-2 -13 -4 -5 -4 17 -1 22 1 32 4 23 2 -10 2 -28 0 -40z m107 37 c3 -8 1 -15
-4 -15 -6 0 -10 7 -10 15 0 8 2 15 4 15 2 0 6 -7 10 -15z m-4142 -17 c-7 -7
-12 -8 -12 -2 0 14 12 26 19 19 2 -3 -1 -11 -7 -17z m368 6 c0 -14 -25 -52
-31 -48 -10 6 -12 48 -3 57 6 5 34 -1 34 -9z m3200 -22 c-1 -25 -2 -26 -15 -9
-7 11 -11 25 -8 33 8 22 23 6 23 -24z m45 28 c3 -5 1 -10 -4 -10 -6 0 -11 5
-11 10 0 6 2 10 4 10 3 0 8 -4 11 -10z m132 -37 c-3 -10 -5 -2 -5 17 0 19 2
27 5 18 2 -10 2 -26 0 -35z m98 12 c1 -13 -3 -21 -7 -19 -4 3 -8 17 -8 31 0
32 15 20 15 -12z m50 25 c3 -5 1 -10 -4 -10 -6 0 -11 5 -11 10 0 6 2 10 4 10
3 0 8 -4 11 -10z m-595 -30 c0 -11 -7 -20 -15 -20 -18 0 -19 6 -2 25 16 19 17
18 17 -5z m170 -12 c0 -5 -4 -8 -10 -8 -5 0 -10 10 -10 23 0 18 2 19 10 7 5
-8 10 -18 10 -22z m623 12 c3 -11 1 -20 -4 -20 -5 0 -9 9 -9 20 0 11 2 20 4
20 2 0 6 -9 9 -20z m97 -2 c0 -12 -1 -19 -3 -17 -1 2 -9 12 -16 22 -12 14 -11
17 3 17 10 0 16 -8 16 -22z m-3940 6 c0 -8 -19 -13 -24 -6 -3 5 1 9 9 9 8 0
15 -2 15 -3z m560 -15 c0 -5 8 -9 18 -9 9 -1 28 -7 42 -16 23 -13 23 -14 3 -9
-34 9 -57 -9 -59 -47 -1 -18 3 -36 9 -40 6 -4 0 -16 -15 -30 -26 -23 -50 -87
-28 -73 5 3 10 1 10 -5 0 -7 -6 -10 -12 -7 -7 2 -12 16 -10 30 1 14 -1 28 -5
30 -5 3 -8 -9 -7 -26 0 -18 -4 -40 -8 -49 -6 -12 -5 -18 3 -18 7 0 10 -3 6 -6
-3 -4 -12 -4 -20 -1 -26 10 3 110 43 152 19 19 28 35 21 35 -10 0 -11 3 -2 14
7 8 8 16 3 18 -5 1 -12 20 -15 40 -4 29 -3 36 9 31 8 -3 14 -9 14 -14z m2327
-16 c-3 -10 -5 -4 -5 12 0 17 2 24 5 18 2 -7 2 -21 0 -30z m57 22 c3 -8 1 -15
-4 -15 -6 0 -10 7 -10 15 0 8 2 15 4 15 2 0 6 -7 10 -15z m806 -5 c0 -5 -7
-10 -16 -10 -8 0 -12 5 -9 10 3 6 10 10 16 10 5 0 9 -4 9 -10z m-3120 -64 c0
-21 -21 -31 -30 -15 -5 7 -6 17 -4 21 9 14 34 9 34 -6z m-674 -6 c8 0 14 -7
14 -15 0 -20 -10 -19 -40 6 -18 15 -20 19 -7 15 10 -3 25 -6 33 -6z m109 -3
c21 -16 12 -39 -13 -30 -20 8 -33 24 -26 35 7 11 18 10 39 -5z m340 -5 c-3 -3
-11 0 -18 7 -9 10 -8 11 6 5 10 -3 15 -9 12 -12z m-198 -74 c-2 -18 -4 -6 -4
27 0 33 2 48 4 33 2 -15 2 -42 0 -60z m547 -13 c8 -27 13 -51 11 -53 -9 -9
-45 80 -44 110 0 38 7 27 33 -57z m-804 49 c0 -8 -4 -12 -10 -9 -5 3 -10 10
-10 16 0 5 5 9 10 9 6 0 10 -7 10 -16z m-983 -91 c1 -60 -2 -90 -7 -78 -15 35
-11 175 4 175 2 0 3 -44 3 -97z m1013 93 c0 -3 -4 -8 -10 -11 -5 -3 -10 -1
-10 4 0 6 5 11 10 11 6 0 10 -2 10 -4z m143 -26 c3 -11 -2 -25 -11 -32 -12
-10 -14 -10 -8 0 4 6 3 12 -3 12 -7 0 -8 16 -2 38 3 10 20 -2 24 -18z m-793
-10 c0 -5 -2 -10 -4 -10 -3 0 -8 5 -11 10 -3 6 -1 10 4 10 6 0 11 -4 11 -10z
m850 -15 c-7 -8 -16 -13 -20 -10 -5 3 -11 1 -15 -5 -8 -12 -25 -13 -25 -2 0
10 38 30 59 31 11 1 11 -2 1 -14z m170 -30 c0 -3 -7 -2 -16 2 -14 5 -15 3 -4
-18 7 -13 18 -27 24 -31 7 -5 6 -8 -4 -8 -29 0 -60 42 -60 81 l0 20 30 -21
c17 -12 30 -23 30 -25z m220 25 c-20 -13 -33 -13 -25 0 3 6 14 10 23 10 15 0
15 -2 2 -10z m140 -27 c0 -34 -17 -46 -18 -14 0 17 4 31 9 31 5 0 9 -8 9 -17z
m-265 -23 c-3 -5 -14 -10 -23 -10 -15 0 -15 2 -2 10 20 13 33 13 25 0z m367
-39 c3 -21 1 -28 -9 -24 -14 6 -18 53 -4 53 5 0 11 -13 13 -29z m-55 -33 c-3
-7 -5 -2 -5 12 0 14 2 19 5 13 2 -7 2 -19 0 -25z m43 -13 c0 -10 -9 -15 -27
-14 -17 1 -21 3 -10 6 9 2 17 9 17 14 0 5 5 9 10 9 6 0 10 -7 10 -15z m-1793
-21 c2 -13 1 -15 -4 -4 -3 8 -11 19 -17 23 -7 6 -6 7 4 4 8 -2 16 -12 17 -23z"/>
<path d="M3753 6793 c3 -16 13 -64 23 -108 22 -101 25 -426 5 -558 -12 -82
-11 -110 6 -94 14 15 24 112 29 307 6 204 -5 332 -36 443 -13 43 -35 51 -27
10z"/>
<path d="M3844 6259 c8 -105 -15 -312 -44 -394 -33 -92 -33 -95 -21 -95 17 0
45 72 66 170 24 109 28 390 6 398 -11 4 -12 -10 -7 -79z"/>
<path d="M1070 5504 c0 -8 5 -12 10 -9 6 3 10 10 10 16 0 5 -4 9 -10 9 -5 0
-10 -7 -10 -16z"/>
<path d="M1288 5353 c7 -3 16 -2 19 1 4 3 -2 6 -13 5 -11 0 -14 -3 -6 -6z"/>
<path d="M977 5323 c-11 -10 -8 -43 3 -43 6 0 10 11 10 25 0 26 -2 29 -13 18z"/>
<path d="M1290 5310 c0 -5 5 -10 11 -10 5 0 7 5 4 10 -3 6 -8 10 -11 10 -2 0
-4 -4 -4 -10z"/>
<path d="M4564 3384 c-4 -27 -2 -69 5 -100 13 -59 7 -78 -50 -157 -38 -52 -29
-60 17 -16 54 52 63 82 60 205 -3 116 -19 151 -32 68z"/>
<path d="M4320 3171 c0 -10 30 -24 37 -17 3 3 2 9 -2 15 -8 13 -35 15 -35 2z"/>
<path d="M3899 2616 c-2 -2 -24 -7 -49 -10 -58 -7 -116 -24 -160 -46 -47 -24
-120 -88 -120 -105 0 -22 146 -72 245 -84 109 -13 236 -14 289 -1 46 10 72 39
117 133 24 48 40 69 57 74 37 9 14 19 -73 31 -75 11 -297 17 -306 8z m91 -43
c19 -9 43 -24 54 -34 12 -10 23 -18 26 -17 11 4 49 -36 43 -45 -3 -6 -1 -7 5
-3 19 11 34 -30 20 -54 -15 -23 -28 -24 -240 -21 -119 2 -145 5 -199 27 -35
13 -69 24 -76 24 -18 0 -16 15 4 31 15 12 16 12 8 -1 -6 -12 -5 -12 5 -3 7 6
18 10 24 9 6 -2 8 -1 4 1 -17 10 -5 23 44 47 29 14 66 26 83 26 17 0 35 4 41
9 9 9 45 17 95 20 14 0 41 -6 59 -16z"/>
<path d="M3938 2573 c7 -3 16 -2 19 1 4 3 -2 6 -13 5 -11 0 -14 -3 -6 -6z"/>
<path d="M3790 2218 c0 -8 20 -14 73 -24 49 -8 209 5 205 17 -4 11 -278 18
-278 7z"/>
<path d="M2002 3258 c-27 -27 -3 -88 35 -88 23 0 53 29 53 51 -1 40 -60 65
-88 37z"/>
<path d="M1838 2238 c-3 -24 -3 -80 0 -126 4 -77 6 -82 27 -82 25 0 55 29 55
54 0 9 -7 28 -17 42 -9 14 -19 53 -22 87 -4 46 -10 63 -22 65 -12 2 -17 -7
-21 -40z"/>
<path d="M4546 1963 c-6 -14 -5 -15 5 -6 7 7 10 15 7 18 -3 3 -9 -2 -12 -12z"/>
<path d="M4391 1774 c0 -11 3 -14 6 -6 3 7 2 16 -1 19 -3 4 -6 -2 -5 -13z"/>
<path d="M4391 1614 c0 -11 3 -14 6 -6 3 7 2 16 -1 19 -3 4 -6 -2 -5 -13z"/>
<path d="M3847 1609 c7 -7 15 -10 18 -7 3 3 -2 9 -12 12 -14 6 -15 5 -6 -5z"/>
<path d="M4340 1369 c0 -12 3 -20 6 -16 3 3 18 1 32 -4 22 -9 23 -8 12 6 -7 9
-22 21 -32 26 -15 8 -18 6 -18 -12z"/>
<path d="M4225 1270 l-20 -9 20 0 c11 0 29 4 40 9 l20 9 -20 0 c-11 0 -29 -4
-40 -9z"/>
<path d="M3387 1680 c-9 -11 -13 -20 -8 -20 4 0 16 9 26 20 10 11 14 20 9 20
-5 0 -17 -9 -27 -20z"/>
<path d="M3245 7310 c44 -27 115 -80 158 -116 76 -64 115 -80 66 -28 -72 77
-242 194 -281 194 -15 0 3 -16 57 -50z"/>
<path d="M3934 7323 c3 -21 8 -59 12 -85 6 -49 24 -67 24 -24 0 72 -14 146
-27 146 -11 0 -13 -9 -9 -37z"/>
<path d="M5550 1143 c0 -21 -3 -55 -7 -77 l-6 -39 59 7 c126 16 129 22 41 87
-90 66 -87 66 -87 22z"/>
<path d="M160 1100 c0 -5 9 -10 21 -10 11 0 17 5 14 10 -3 6 -13 10 -21 10 -8
0 -14 -4 -14 -10z"/>
<path d="M5930 934 c0 -26 44 -134 54 -134 5 0 38 19 73 41 85 56 84 73 -4 88
-38 6 -80 14 -95 17 -22 4 -28 2 -28 -12z"/>
<path d="M6034 414 c-11 -16 -48 -77 -83 -135 -35 -59 -92 -145 -127 -193 -71
-95 -63 -120 8 -28 98 125 234 350 226 374 -2 6 -13 -2 -24 -18z"/>
</g>
</svg>
